<svg width="48" height="48" viewBox="0 0 48 48" fill="none" xmlns="http://www.w3.org/2000/svg">
<path d="M34 24C38 20 42 16.4183 42 12C42 7.58172 38.4183 4 34 4C29.5817 4 26 7.58172 26 12C26 16.4183 30 20 34 24Z" fill="url(#paint0_linear_718_729)"/>
<path d="M21.0001 43.7766L21.0003 39.3699C21.0003 39.1312 21.0857 38.9004 21.2411 38.7192L26.2126 32.9189C26.6212 32.4422 26.4946 31.7113 25.9495 31.3998L20.2371 28.1355C20.0819 28.0468 19.9533 27.9182 19.8647 27.7629L16.1409 21.2373C15.9471 20.8977 15.5731 20.7022 15.1837 20.7369L4.12837 21.7215C4.04357 22.4693 4 23.2296 4 24C4 34.0262 11.3775 42.3292 21.0001 43.7766Z" fill="url(#paint1_linear_718_729)"/>
<path d="M30 4.9156C28.1059 4.32071 26.0904 4 24 4C12.9543 4 4 12.9543 4 24C4 35.0457 12.9543 44 24 44C35.0457 44 44 35.0457 44 24C44 20.5693 43.1362 17.3404 41.6143 14.5189M34 11.5H34.01M21.0001 43.7765L21.0003 39.3699C21.0003 39.1312 21.0857 38.9003 21.2411 38.7191L26.2126 32.9188C26.6212 32.4421 26.4946 31.7113 25.9495 31.3998L20.2371 28.1355C20.0819 28.0468 19.9533 27.9181 19.8647 27.7629L16.1409 21.2373C15.9471 20.8976 15.5731 20.7021 15.1837 20.7368L4.12837 21.7215M42 12C42 16.4183 38 20 34 24C30 20 26 16.4183 26 12C26 7.58172 29.5817 4 34 4C38.4183 4 42 7.58172 42 12ZM34.5 11.5C34.5 11.7761 34.2761 12 34 12C33.7239 12 33.5 11.7761 33.5 11.5C33.5 11.2239 33.7239 11 34 11C34.2761 11 34.5 11.2239 34.5 11.5Z" stroke="white" stroke-opacity="0.8" stroke-width="1.33" stroke-linecap="round" stroke-linejoin="round"/>
<defs>
<linearGradient id="paint0_linear_718_729" x1="8.90162" y1="12.5617" x2="36.9178" y2="40.6639" gradientUnits="userSpaceOnUse">
<stop stop-color="white" stop-opacity="0.6"/>
<stop offset="1" stop-color="white" stop-opacity="0.1"/>
</linearGradient>
<linearGradient id="paint1_linear_718_729" x1="8.90162" y1="12.5617" x2="36.9178" y2="40.6639" gradientUnits="userSpaceOnUse">
<stop stop-color="white" stop-opacity="0.6"/>
<stop offset="1" stop-color="white" stop-opacity="0.1"/>
</linearGradient>
</defs>
</svg>
