<svg width="48" height="48" viewBox="0 0 48 48" fill="none" xmlns="http://www.w3.org/2000/svg">
<path d="M23.2224 4.43128C23.506 4.27372 23.6478 4.19494 23.798 4.16406C23.9309 4.13672 24.068 4.13672 24.2009 4.16406C24.3511 4.19494 24.4929 4.27372 24.7765 4.43128L39.4819 12.6009C40.3038 13.0576 40.7148 13.2859 40.8512 13.5868C40.9701 13.8492 40.9701 14.15 40.8512 14.4124C40.7148 14.7133 40.3038 14.9416 39.4819 15.3982L23.9995 23.9996L8.51704 15.3983C7.6951 14.9416 7.28413 14.7133 7.14775 14.4124C7.02887 14.15 7.02887 13.8492 7.14775 13.5868C7.28413 13.2859 7.6951 13.0576 8.51704 12.6009L23.2224 4.43128Z" fill="url(#paint0_linear_718_708)"/>
<path d="M40.9999 14.5557L23.9999 24.0001M23.9999 24.0001L6.99993 14.5557M23.9999 24.0001L24 43.0002M28 41.7779L25.5541 43.1368C24.9869 43.4519 24.7032 43.6095 24.4029 43.6712C24.1371 43.7259 23.8629 43.7259 23.5971 43.6712C23.2968 43.6095 23.0132 43.4519 22.4459 43.1368L7.64594 34.9146C7.04691 34.5818 6.74737 34.4154 6.52927 34.1787C6.33632 33.9693 6.19029 33.7212 6.10097 33.4508C6 33.1452 6 32.8026 6 32.1173V15.8831C6 15.1978 6 14.8551 6.10097 14.5495C6.19029 14.2792 6.33632 14.031 6.52927 13.8216C6.74737 13.585 7.0469 13.4186 7.64594 13.0858L22.4459 4.86353C23.0131 4.54842 23.2968 4.39086 23.5971 4.32909C23.8629 4.27442 24.1371 4.27442 24.4029 4.32909C24.7032 4.39086 24.9869 4.54842 25.5541 4.86353L40.3541 13.0858C40.9531 13.4186 41.2526 13.585 41.4707 13.8216C41.6637 14.031 41.8097 14.2792 41.899 14.5495C42 14.8551 42 15.1978 42 15.8831L42 25.0002M15 9.00017L33 19.0002M32 36.0002L36 40.0002L44 32.0002" stroke="white" stroke-opacity="0.8" stroke-width="1.33" stroke-linecap="round" stroke-linejoin="round"/>
<defs>
<linearGradient id="paint0_linear_718_708" x1="11.429" y1="8.41747" x2="23.3326" y2="29.7444" gradientUnits="userSpaceOnUse">
<stop stop-color="white" stop-opacity="0.6"/>
<stop offset="1" stop-color="white" stop-opacity="0.1"/>
</linearGradient>
</defs>
</svg>
