<svg width="48" height="48" viewBox="0 0 48 48" fill="none" xmlns="http://www.w3.org/2000/svg">
<path d="M18.9997 24C23.9702 24 27.9997 19.9706 27.9997 15C27.9997 10.0294 23.9702 6 18.9997 6C14.0291 6 9.99967 10.0294 9.99967 15C9.99967 19.9706 14.0291 24 18.9997 24Z" fill="url(#paint0_linear_718_715)"/>
<path d="M18.9997 30C13.3384 30 8.30675 33.0891 5.11813 37.8767C4.4196 38.9255 4.07033 39.4499 4.11054 40.1198C4.14185 40.6414 4.48377 41.28 4.90055 41.5952C5.43583 42 6.17202 42 7.64439 42H30.355C31.8273 42 32.5635 42 33.0988 41.5952C33.5156 41.28 33.8575 40.6414 33.8888 40.1198C33.929 39.4499 33.5798 38.9255 32.8812 37.8767C29.6926 33.0891 24.6609 30 18.9997 30Z" fill="url(#paint1_linear_718_715)"/>
<path d="M35.9997 31.6738C38.9115 33.1365 41.4079 35.4839 43.2302 38.4193C43.591 39.0005 43.7714 39.2912 43.8338 39.6937C43.9606 40.5115 43.4013 41.5171 42.6395 41.8407C42.2647 42 41.843 42 40.9997 42M31.9997 23.0645C34.9631 21.5918 36.9997 18.5337 36.9997 15C36.9997 11.4663 34.9631 8.40822 31.9997 6.93552M27.9997 15C27.9997 19.9706 23.9702 24 18.9997 24C14.0291 24 9.99967 19.9706 9.99967 15C9.99967 10.0294 14.0291 6 18.9997 6C23.9702 6 27.9997 10.0294 27.9997 15ZM5.11813 37.8767C8.30675 33.0891 13.3384 30 18.9997 30C24.6609 30 29.6926 33.0891 32.8812 37.8767C33.5797 38.9255 33.929 39.4499 33.8888 40.1198C33.8575 40.6414 33.5156 41.28 33.0988 41.5952C32.5635 42 31.8273 42 30.355 42H7.64439C6.17202 42 5.43583 42 4.90055 41.5952C4.48377 41.28 4.14185 40.6414 4.11054 40.1198C4.07033 39.4499 4.4196 38.9255 5.11813 37.8767Z" stroke="white" stroke-opacity="0.8" stroke-width="1.33" stroke-linecap="round" stroke-linejoin="round"/>
<defs>
<linearGradient id="paint0_linear_718_715" x1="7.94933" y1="13.7488" x2="33.0565" y2="35.559" gradientUnits="userSpaceOnUse">
<stop stop-color="white" stop-opacity="0.6"/>
<stop offset="1" stop-color="white" stop-opacity="0.1"/>
</linearGradient>
<linearGradient id="paint1_linear_718_715" x1="7.94933" y1="13.7488" x2="33.0565" y2="35.559" gradientUnits="userSpaceOnUse">
<stop stop-color="white" stop-opacity="0.6"/>
<stop offset="1" stop-color="white" stop-opacity="0.1"/>
</linearGradient>
</defs>
</svg>
