<svg width="48" height="52" viewBox="0 0 48 52" fill="none" xmlns="http://www.w3.org/2000/svg">
<g filter="url(#filter0_f_699_8915)">
<path d="M24 20C27.3137 20 30 17.3137 30 14C30 10.6863 27.3137 8 24 8C20.6863 8 18 10.6863 18 14C18 17.3137 20.6863 20 24 20Z" fill="url(#paint0_linear_699_8915)"/>
</g>
<path d="M24 20C27.3137 20 30 17.3137 30 14C30 10.6863 27.3137 8 24 8C20.6863 8 18 10.6863 18 14C18 17.3137 20.6863 20 24 20ZM24 20V48M24 48C18.6957 48 13.6086 45.8929 9.85786 42.1421C6.10714 38.3914 4 33.3043 4 28H10M24 48C29.3043 48 34.3914 45.8929 38.1421 42.1421C41.8929 38.3914 44 33.3043 44 28H38" stroke="#171717" stroke-width="2" stroke-linecap="round" stroke-linejoin="round"/>
<defs>
<filter id="filter0_f_699_8915" x="10" y="0" width="28" height="28" filterUnits="userSpaceOnUse" color-interpolation-filters="sRGB">
<feFlood flood-opacity="0" result="BackgroundImageFix"/>
<feBlend mode="normal" in="SourceGraphic" in2="BackgroundImageFix" result="shape"/>
<feGaussianBlur stdDeviation="4" result="effect1_foregroundBlur_699_8915"/>
</filter>
<linearGradient id="paint0_linear_699_8915" x1="24" y1="8" x2="24" y2="20" gradientUnits="userSpaceOnUse">
<stop offset="0.923077" stop-color="#FF9A4C"/>
<stop offset="0.927052" stop-color="#FF8221"/>
</linearGradient>
</defs>
</svg>
