<svg width="53" height="52" viewBox="0 0 53 52" fill="none" xmlns="http://www.w3.org/2000/svg">
<g filter="url(#filter0_f_699_8908)">
<path d="M9.93398 44C9.37393 44 9.09391 44 8.87999 43.891C8.69183 43.7951 8.53885 43.6422 8.44298 43.454C8.33398 43.2401 8.33398 42.96 8.33398 42.4V21.6C8.33398 21.0399 8.33398 20.7599 8.44298 20.546C8.53885 20.3578 8.69183 20.2049 8.87999 20.109C9.09391 20 9.37393 20 9.93398 20L14.734 20C15.294 20 15.5741 20 15.788 20.109C15.9761 20.2049 16.1291 20.3578 16.225 20.546C16.334 20.7599 16.334 21.0399 16.334 21.6V26.4C16.334 26.9601 16.334 27.2401 16.443 27.454C16.5389 27.6422 16.6918 27.7951 16.88 27.891C17.0939 28 17.3739 28 17.934 28H22.734C23.294 28 23.5741 28 23.788 28.109C23.9761 28.2049 24.1291 28.3578 24.225 28.546C24.334 28.7599 24.334 29.0399 24.334 29.6V34.4C24.334 34.9601 24.334 35.2401 24.443 35.454C24.5389 35.6422 24.6918 35.7951 24.88 35.891C25.0939 36 25.3739 36 25.934 36H30.734C31.294 36 31.5741 36 31.788 36.109C31.9761 36.2049 32.1291 36.3578 32.225 36.546C32.334 36.7599 32.334 37.0399 32.334 37.6V42.4C32.334 42.96 32.334 43.2401 32.225 43.454C32.1291 43.6421 31.9761 43.7951 31.788 43.891C31.5741 44 31.294 44 30.734 44L9.93398 44Z" fill="url(#paint0_linear_699_8908)"/>
</g>
<path d="M9.93398 44C9.37393 44 9.09391 44 8.87999 43.891C8.69183 43.7951 8.53885 43.6422 8.44298 43.454C8.33398 43.2401 8.33398 42.9601 8.33398 42.4V21.6C8.33398 21.0399 8.33398 20.7599 8.44298 20.546C8.53885 20.3579 8.69183 20.2049 8.87999 20.109C9.09391 20 9.37393 20 9.93398 20L14.734 20C15.294 20 15.5741 20 15.788 20.109C15.9761 20.2049 16.1291 20.3578 16.225 20.546C16.334 20.7599 16.334 21.0399 16.334 21.6V26.4C16.334 26.9601 16.334 27.2401 16.443 27.454C16.5389 27.6422 16.6918 27.7951 16.88 27.891C17.0939 28 17.3739 28 17.934 28H22.734C23.294 28 23.5741 28 23.788 28.109C23.9761 28.2049 24.1291 28.3578 24.225 28.546C24.334 28.7599 24.334 29.0399 24.334 29.6V34.4C24.334 34.9601 24.334 35.2401 24.443 35.454C24.5389 35.6422 24.6918 35.7951 24.88 35.891C25.0939 36 25.3739 36 25.934 36H30.734C31.294 36 31.5741 36 31.788 36.109C31.9761 36.2049 32.1291 36.3578 32.225 36.546C32.334 36.7599 32.334 37.0399 32.334 37.6V42.4C32.334 42.9601 32.334 43.2401 32.225 43.454C32.1291 43.6421 31.9761 43.7951 31.788 43.891C31.5741 44 31.294 44 30.734 44L9.93398 44Z" stroke="#171717" stroke-width="2" stroke-linecap="round" stroke-linejoin="round"/>
<path d="M32.334 13.6C32.334 13.0399 32.334 12.7599 32.225 12.546C32.1291 12.3578 31.9761 12.2049 31.788 12.109C31.5741 12 31.294 12 30.734 12H25.934C25.3739 12 25.0939 12 24.88 12.109C24.6918 12.2049 24.5389 12.3578 24.443 12.546C24.334 12.7599 24.334 13.0399 24.334 13.6V18.4C24.334 18.9601 24.334 19.2401 24.443 19.454C24.5389 19.6422 24.6918 19.7951 24.88 19.891C25.0939 20 25.3739 20 25.934 20H30.734C31.294 20 31.5741 20 31.788 19.891C31.9761 19.7951 32.1291 19.6422 32.225 19.454C32.334 19.2401 32.334 18.9601 32.334 18.4V13.6Z" stroke="#171717" stroke-width="2" stroke-linecap="round" stroke-linejoin="round"/>
<path d="M46.334 25.6C46.334 25.0399 46.334 24.7599 46.225 24.546C46.1291 24.3578 45.9761 24.2049 45.788 24.109C45.5741 24 45.294 24 44.734 24H39.934C39.3739 24 39.0939 24 38.88 24.109C38.6918 24.2049 38.5389 24.3578 38.443 24.546C38.334 24.7599 38.334 25.0399 38.334 25.6V30.4C38.334 30.9601 38.334 31.2401 38.443 31.454C38.5389 31.6422 38.6918 31.7951 38.88 31.891C39.0939 32 39.3739 32 39.934 32H44.734C45.294 32 45.5741 32 45.788 31.891C45.9761 31.7951 46.1291 31.6422 46.225 31.454C46.334 31.2401 46.334 30.9601 46.334 30.4V25.6Z" stroke="#171717" stroke-width="2" stroke-linecap="round" stroke-linejoin="round"/>
<path d="M48.334 5.6C48.334 5.03995 48.334 4.75992 48.225 4.54601C48.1291 4.35785 47.9761 4.20487 47.788 4.10899C47.5741 4 47.294 4 46.734 4H41.934C41.3739 4 41.0939 4 40.88 4.10899C40.6918 4.20487 40.5389 4.35785 40.443 4.54601C40.334 4.75992 40.334 5.03995 40.334 5.6V10.4C40.334 10.9601 40.334 11.2401 40.443 11.454C40.5389 11.6422 40.6918 11.7951 40.88 11.891C41.0939 12 41.3739 12 41.934 12H46.734C47.294 12 47.5741 12 47.788 11.891C47.9761 11.7951 48.1291 11.6422 48.225 11.454C48.334 11.2401 48.334 10.9601 48.334 10.4V5.6Z" stroke="#171717" stroke-width="2" stroke-linecap="round" stroke-linejoin="round"/>
<defs>
<filter id="filter0_f_699_8908" x="0.333984" y="12" width="40" height="40" filterUnits="userSpaceOnUse" color-interpolation-filters="sRGB">
<feFlood flood-opacity="0" result="BackgroundImageFix"/>
<feBlend mode="normal" in="SourceGraphic" in2="BackgroundImageFix" result="shape"/>
<feGaussianBlur stdDeviation="4" result="effect1_foregroundBlur_699_8908"/>
</filter>
<linearGradient id="paint0_linear_699_8908" x1="20.334" y1="20" x2="20.334" y2="44" gradientUnits="userSpaceOnUse">
<stop offset="0.923077" stop-color="#FF9A4C"/>
<stop offset="0.927052" stop-color="#FF8221"/>
</linearGradient>
</defs>
</svg>
