<svg width="50" height="52" viewBox="0 0 50 52" fill="none" xmlns="http://www.w3.org/2000/svg">
<g filter="url(#filter0_f_699_8896)">
<path d="M24.2224 8.43128C24.506 8.27372 24.6478 8.19494 24.798 8.16406C24.9309 8.13672 25.068 8.13672 25.2009 8.16406C25.3511 8.19494 25.4929 8.27372 25.7765 8.43128L40.4819 16.6009C41.3038 17.0576 41.7148 17.2859 41.8512 17.5868C41.9701 17.8492 41.9701 18.15 41.8512 18.4124C41.7148 18.7133 41.3038 18.9416 40.4819 19.3982L24.9995 27.9996L9.51704 19.3983C8.6951 18.9416 8.28413 18.7133 8.14775 18.4124C8.02887 18.15 8.02887 17.8492 8.14775 17.5868C8.28413 17.2859 8.6951 17.0576 9.51704 16.6009L24.2224 8.43128Z" fill="url(#paint0_linear_699_8896)"/>
</g>
<path d="M41.9999 18.5554L24.9999 27.9999M24.9999 27.9999L7.99993 18.5554M24.9999 27.9999L25 46.9999M29 45.7777L26.5541 47.1366C25.9869 47.4517 25.7032 47.6092 25.4029 47.671C25.1371 47.7257 24.8629 47.7257 24.5971 47.671C24.2968 47.6092 24.0132 47.4517 23.4459 47.1366L8.64594 38.9143C8.04691 38.5815 7.74737 38.4151 7.52927 38.1785C7.33632 37.9691 7.19029 37.7209 7.10097 37.4506C7 37.145 7 36.8023 7 36.117V19.8828C7 19.1975 7 18.8549 7.10097 18.5493C7.19029 18.2789 7.33632 18.0308 7.52927 17.8214C7.74737 17.5847 8.0469 17.4183 8.64594 17.0855L23.4459 8.86329C24.0131 8.54818 24.2968 8.39061 24.5971 8.32884C24.8629 8.27417 25.1371 8.27417 25.4029 8.32884C25.7032 8.39062 25.9869 8.54817 26.5541 8.86329L41.3541 17.0855C41.9531 17.4183 42.2526 17.5847 42.4707 17.8214C42.6637 18.0308 42.8097 18.2789 42.899 18.5493C43 18.8549 43 19.1975 43 19.8828L43 28.9999M16 12.9999L34 22.9999M33 39.9999L37 43.9999L45 35.9999" stroke="#171717" stroke-width="2" stroke-linecap="round" stroke-linejoin="round"/>
<defs>
<filter id="filter0_f_699_8896" x="0.0585938" y="0.143555" width="49.8809" height="35.856" filterUnits="userSpaceOnUse" color-interpolation-filters="sRGB">
<feFlood flood-opacity="0" result="BackgroundImageFix"/>
<feBlend mode="normal" in="SourceGraphic" in2="BackgroundImageFix" result="shape"/>
<feGaussianBlur stdDeviation="4" result="effect1_foregroundBlur_699_8896"/>
</filter>
<linearGradient id="paint0_linear_699_8896" x1="24.9995" y1="8.14355" x2="24.9995" y2="27.9996" gradientUnits="userSpaceOnUse">
<stop offset="0.923077" stop-color="#FF9A4C"/>
<stop offset="0.927052" stop-color="#FF8221"/>
</linearGradient>
</defs>
</svg>
