<svg viewBox="0 0 51 50" fill="none" xmlns="http://www.w3.org/2000/svg">
    <path d="M28.666 22H16.666M20.666 30H16.666M32.666 14H16.666M40.666 20V13.6C40.666 10.2397 40.666 8.55953 40.0121 7.27606C39.4368 6.14708 38.5189 5.2292 37.39 4.65396C36.1065 4 34.4263 4 31.066 4H18.266C14.9057 4 13.2255 4 11.9421 4.65396C10.8131 5.2292 9.89522 6.14708 9.31998 7.27606C8.66602 8.55953 8.66602 10.2397 8.66602 13.6V34.4C8.66602 37.7603 8.66602 39.4405 9.31998 40.7239C9.89522 41.8529 10.8131 42.7708 11.9421 43.346C13.2255 44 14.9057 44 18.266 44H25.666M36.666 42C36.666 42 42.666 39.1402 42.666 34.8505V29.8458L38.2908 28.2824C37.2396 27.9059 36.09 27.9059 35.0388 28.2824L30.666 29.8458V34.8505C30.666 39.1402 36.666 42 36.666 42Z" stroke="#FF8221" stroke-width="2" stroke-linecap="round" stroke-linejoin="round"/>
</svg>
