<svg width="58" height="52" viewBox="0 0 58 52" fill="none" xmlns="http://www.w3.org/2000/svg">
<g filter="url(#filter0_f_699_8921)">
<path d="M10.0405 34.2902L13.8569 32.0871C14.0636 31.9678 14.3062 31.9263 14.5408 31.9702L22.0498 33.3756C22.6669 33.491 23.2365 33.016 23.2338 32.3882L23.2045 25.8089C23.2037 25.6301 23.2509 25.4544 23.341 25.3001L27.1305 18.8124C27.3277 18.4748 27.31 18.0532 27.0852 17.7332L20.7048 8.65137C20.0148 8.95182 19.3346 9.29423 18.6674 9.67945C9.98453 14.6925 6.48269 25.2331 10.0405 34.2902Z" fill="url(#paint0_linear_699_8921)"/>
<path d="M39.667 26C43.4211 27.8768 48.6419 27.9999 48.6419 27.9999C48.6582 27.6687 48.6664 27.3355 48.6664 27.0003C48.6664 21.4058 46.3694 16.3478 42.667 12.718C31.667 18 37.6667 25 39.667 26Z" fill="url(#paint1_linear_699_8921)"/>
</g>
<path d="M10.0395 34.2902L13.8559 32.0871C14.0626 31.9678 14.3052 31.9263 14.5398 31.9702L22.0488 33.3756C22.6659 33.491 23.2356 33.016 23.2328 32.3882L23.2035 25.8089C23.2027 25.6301 23.2499 25.4544 23.34 25.3001L27.1295 18.8124C27.3267 18.4748 27.309 18.0532 27.0843 17.7332L20.7039 8.65137M42.6665 12.7181C31.6664 18.0001 37.6661 25.0001 39.6664 26.0001C43.4206 27.8768 48.6413 28 48.6413 28C48.6576 27.6687 48.666 27.3353 48.666 27C48.666 15.9543 39.7117 7 28.666 7C17.6203 7 8.66602 15.9543 8.66602 27C8.66602 38.0457 17.6203 47 28.666 47C29.0013 47 29.3347 46.9917 29.666 46.9754" stroke="#171717" stroke-width="2" stroke-linecap="round" stroke-linejoin="round"/>
<g filter="url(#filter1_f_699_8921)">
<path d="M45.4591 43.75H38.3275C37.5024 43.75 37.0898 43.75 36.7585 43.5978C36.4666 43.4637 36.2197 43.2481 36.0475 42.977C35.852 42.6692 35.7964 42.2604 35.6852 41.4428L34.8086 35H48.5268C48.8032 35 48.9414 35 49.0387 35.0567C49.124 35.1064 49.1889 35.1848 49.2218 35.2779C49.2592 35.3841 49.2334 35.5198 49.1817 35.7914L48.0786 41.5823C47.9317 42.3539 47.8582 42.7397 47.6593 43.0285C47.4839 43.2832 47.2412 43.4841 46.9582 43.6087C46.6373 43.75 46.2445 43.75 45.4591 43.75Z" fill="url(#paint2_linear_699_8921)"/>
</g>
<path d="M32.666 31.6667H33.7545C33.9595 31.6667 34.062 31.6667 34.1445 31.7044C34.2172 31.7377 34.2788 31.7911 34.322 31.8584C34.371 31.9347 34.3855 32.0362 34.4145 32.2391L34.8089 35.0001M34.8089 35.0001L35.6854 41.4429C35.7967 42.2605 35.8523 42.6693 36.0478 42.977C36.22 43.2482 36.4669 43.4638 36.7588 43.5979C37.0901 43.7501 37.5026 43.7501 38.3278 43.7501H45.4593C46.2448 43.7501 46.6375 43.7501 46.9585 43.6088C47.2415 43.4842 47.4842 43.2833 47.6596 43.0286C47.8585 42.7398 47.9319 42.354 48.0789 41.5824L49.1819 35.7915C49.2337 35.5199 49.2595 35.3841 49.222 35.278C49.1892 35.1849 49.1243 35.1065 49.039 35.0568C48.9417 35.0001 48.8035 35.0001 48.527 35.0001H34.8089ZM39.3327 47.5001C39.3327 47.9603 38.9596 48.3334 38.4993 48.3334C38.0391 48.3334 37.666 47.9603 37.666 47.5001C37.666 47.0398 38.0391 46.6667 38.4993 46.6667C38.9596 46.6667 39.3327 47.0398 39.3327 47.5001ZM45.9993 47.5001C45.9993 47.9603 45.6263 48.3334 45.166 48.3334C44.7058 48.3334 44.3327 47.9603 44.3327 47.5001C44.3327 47.0398 44.7058 46.6667 45.166 46.6667C45.6263 46.6667 45.9993 47.0398 45.9993 47.5001Z" stroke="#171717" stroke-width="2" stroke-linecap="round" stroke-linejoin="round"/>
<defs>
<filter id="filter0_f_699_8921" x="0.664062" y="0.651367" width="56.002" height="41.6389" filterUnits="userSpaceOnUse" color-interpolation-filters="sRGB">
<feFlood flood-opacity="0" result="BackgroundImageFix"/>
<feBlend mode="normal" in="SourceGraphic" in2="BackgroundImageFix" result="shape"/>
<feGaussianBlur stdDeviation="4" result="effect1_foregroundBlur_699_8921"/>
</filter>
<filter id="filter1_f_699_8921" x="26.8086" y="27" width="30.4316" height="24.75" filterUnits="userSpaceOnUse" color-interpolation-filters="sRGB">
<feFlood flood-opacity="0" result="BackgroundImageFix"/>
<feBlend mode="normal" in="SourceGraphic" in2="BackgroundImageFix" result="shape"/>
<feGaussianBlur stdDeviation="4" result="effect1_foregroundBlur_699_8921"/>
</filter>
<linearGradient id="paint0_linear_699_8921" x1="28.6652" y1="8.65137" x2="28.6652" y2="34.2902" gradientUnits="userSpaceOnUse">
<stop offset="0.923077" stop-color="#FF9A4C"/>
<stop offset="0.927052" stop-color="#FF8221"/>
</linearGradient>
<linearGradient id="paint1_linear_699_8921" x1="28.6652" y1="8.65137" x2="28.6652" y2="34.2902" gradientUnits="userSpaceOnUse">
<stop offset="0.923077" stop-color="#FF9A4C"/>
<stop offset="0.927052" stop-color="#FF8221"/>
</linearGradient>
<linearGradient id="paint2_linear_699_8921" x1="42.0241" y1="35" x2="42.0241" y2="43.75" gradientUnits="userSpaceOnUse">
<stop offset="0.923077" stop-color="#FF9A4C"/>
<stop offset="0.927052" stop-color="#FF8221"/>
</linearGradient>
</defs>
</svg>
