<svg width="55" height="56" viewBox="0 0 55 56" fill="none" xmlns="http://www.w3.org/2000/svg">
<g filter="url(#filter0_f_699_8889)">
<path d="M38.334 28C42.334 24 46.334 20.4183 46.334 16C46.334 11.5817 42.7523 8 38.334 8C33.9157 8 30.334 11.5817 30.334 16C30.334 20.4183 34.334 24 38.334 28Z" fill="url(#paint0_linear_699_8889)"/>
<path d="M25.3341 47.7766L25.3343 43.3699C25.3343 43.1312 25.4197 42.9004 25.575 42.7192L30.5466 36.9189C30.9552 36.4422 30.8286 35.7113 30.2835 35.3998L24.5711 32.1355C24.4158 32.0468 24.2873 31.9182 24.1987 31.7629L20.4749 25.2373C20.2811 24.8977 19.9071 24.7022 19.5176 24.7369L8.46235 25.7215C8.37755 26.4693 8.33398 27.2296 8.33398 28C8.33398 38.0262 15.7115 46.3292 25.3341 47.7766Z" fill="url(#paint1_linear_699_8889)"/>
</g>
<path d="M34.334 8.9156C32.4399 8.32071 30.4244 8 28.334 8C17.2883 8 8.33398 16.9543 8.33398 28C8.33398 39.0457 17.2883 48 28.334 48C39.3797 48 48.334 39.0457 48.334 28C48.334 24.5693 47.4702 21.3404 45.9483 18.5189M38.334 15.5H38.344M25.3341 47.7765L25.3343 43.3699C25.3343 43.1312 25.4197 42.9003 25.575 42.7191L30.5466 36.9188C30.9552 36.4421 30.8286 35.7113 30.2835 35.3998L24.5711 32.1355C24.4158 32.0468 24.2873 31.9181 24.1987 31.7629L20.4749 25.2373C20.2811 24.8976 19.9071 24.7021 19.5176 24.7368L8.46235 25.7215M46.334 16C46.334 20.4183 42.334 24 38.334 28C34.334 24 30.334 20.4183 30.334 16C30.334 11.5817 33.9157 8 38.334 8C42.7523 8 46.334 11.5817 46.334 16ZM38.834 15.5C38.834 15.7761 38.6101 16 38.334 16C38.0578 16 37.834 15.7761 37.834 15.5C37.834 15.2239 38.0578 15 38.334 15C38.6101 15 38.834 15.2239 38.834 15.5Z" stroke="#171717" stroke-width="2" stroke-linecap="round" stroke-linejoin="round"/>
<defs>
<filter id="filter0_f_699_8889" x="0.333984" y="0" width="54" height="55.7766" filterUnits="userSpaceOnUse" color-interpolation-filters="sRGB">
<feFlood flood-opacity="0" result="BackgroundImageFix"/>
<feBlend mode="normal" in="SourceGraphic" in2="BackgroundImageFix" result="shape"/>
<feGaussianBlur stdDeviation="4" result="effect1_foregroundBlur_699_8889"/>
</filter>
<linearGradient id="paint0_linear_699_8889" x1="27.334" y1="8" x2="27.334" y2="47.7766" gradientUnits="userSpaceOnUse">
<stop offset="0.923077" stop-color="#FF9A4C"/>
<stop offset="0.927052" stop-color="#FF8221"/>
</linearGradient>
<linearGradient id="paint1_linear_699_8889" x1="27.334" y1="8" x2="27.334" y2="47.7766" gradientUnits="userSpaceOnUse">
<stop offset="0.923077" stop-color="#FF9A4C"/>
<stop offset="0.927052" stop-color="#FF8221"/>
</linearGradient>
</defs>
</svg>
