<svg width="57" height="48" viewBox="0 0 57 48" fill="none" xmlns="http://www.w3.org/2000/svg">
<g filter="url(#filter0_f_699_8930)">
<path d="M22.7486 29.5854C21.259 28.1324 20.334 26.1032 20.334 23.8579C20.334 21.6849 21.2003 19.7143 22.6065 18.2726L14.1918 9.85791C6.38136 17.6684 6.38136 30.3317 14.1918 38.1422L22.7486 29.5854Z" fill="url(#paint0_linear_699_8930)"/>
<path d="M33.9141 18.4147C35.4037 19.8676 36.3287 21.8969 36.3287 24.1422C36.3287 26.3152 35.4624 28.2858 34.0562 29.7275L42.4709 38.1422C50.2813 30.3317 50.2813 17.6684 42.4709 9.85791L33.9141 18.4147Z" fill="url(#paint1_linear_699_8930)"/>
</g>
<path d="M22.6065 18.2726L14.1918 9.85791M14.1918 38.1422L22.6699 29.6641M34.0561 29.7275L42.4708 38.1422M42.4708 9.85791L33.9915 18.3372M48.334 24C48.334 35.0457 39.3797 44 28.334 44C17.2883 44 8.33398 35.0457 8.33398 24C8.33398 12.9543 17.2883 4 28.334 4C39.3797 4 48.334 12.9543 48.334 24ZM36.334 24C36.334 28.4183 32.7523 32 28.334 32C23.9157 32 20.334 28.4183 20.334 24C20.334 19.5817 23.9157 16 28.334 16C32.7523 16 36.334 19.5817 36.334 24Z" stroke="#171717" stroke-width="2" stroke-linecap="round" stroke-linejoin="round"/>
<defs>
<filter id="filter0_f_699_8930" x="0.333984" y="1.85791" width="55.9941" height="44.2842" filterUnits="userSpaceOnUse" color-interpolation-filters="sRGB">
<feFlood flood-opacity="0" result="BackgroundImageFix"/>
<feBlend mode="normal" in="SourceGraphic" in2="BackgroundImageFix" result="shape"/>
<feGaussianBlur stdDeviation="4" result="effect1_foregroundBlur_699_8930"/>
</filter>
<linearGradient id="paint0_linear_699_8930" x1="28.3314" y1="9.85791" x2="28.3314" y2="38.1422" gradientUnits="userSpaceOnUse">
<stop offset="0.923077" stop-color="#FF9A4C"/>
<stop offset="0.927052" stop-color="#FF8221"/>
</linearGradient>
<linearGradient id="paint1_linear_699_8930" x1="28.3314" y1="9.85791" x2="28.3314" y2="38.1422" gradientUnits="userSpaceOnUse">
<stop offset="0.923077" stop-color="#FF9A4C"/>
<stop offset="0.927052" stop-color="#FF8221"/>
</linearGradient>
</defs>
</svg>
