<svg viewBox="0 0 57 48" fill="none" xmlns="http://www.w3.org/2000/svg">
    <path d="M22.6065 18.2726L14.1918 9.85791M14.1918 38.1422L22.6699 29.6641M34.0561 29.7275L42.4708 38.1422M42.4708 9.85791L33.9915 18.3372M48.334 24C48.334 35.0457 39.3797 44 28.334 44C17.2883 44 8.33398 35.0457 8.33398 24C8.33398 12.9543 17.2883 4 28.334 4C39.3797 4 48.334 12.9543 48.334 24ZM36.334 24C36.334 28.4183 32.7523 32 28.334 32C23.9157 32 20.334 28.4183 20.334 24C20.334 19.5817 23.9157 16 28.334 16C32.7523 16 36.334 19.5817 36.334 24Z" stroke="#FF8221" stroke-width="2" stroke-linecap="round" stroke-linejoin="round"/>
</svg>
